<svg width="31" height="31" viewBox="0 0 31 31" fill="none" xmlns="http://www.w3.org/2000/svg">
<path d="M10.2048 25.8337C12.6701 27.0983 15.5059 27.4409 18.2014 26.7996C20.8968 26.1583 23.2746 24.5754 24.9062 22.3361C26.5379 20.0968 27.3161 17.3484 27.1006 14.5861C26.8851 11.8238 25.6901 9.2293 23.7309 7.27013C21.7717 5.31096 19.1772 4.11596 16.4149 3.90047C13.6527 3.68497 10.9042 4.46315 8.66492 6.09479C6.42562 7.72642 4.84271 10.1042 4.20144 12.7997C3.56017 15.4951 3.9027 18.331 5.16732 20.7962L2.58398 28.4171L10.2048 25.8337Z" stroke="#34911E" stroke-width="2" stroke-linecap="round" stroke-linejoin="round"/>
<path d="M11.7422 11.6252C12.0459 10.762 12.6453 10.0341 13.4342 9.57038C14.2232 9.1067 15.1508 8.93721 16.0527 9.09192C16.9547 9.24662 17.7727 9.71555 18.3621 10.4156C18.9514 11.1157 19.274 12.0018 19.2726 12.9169C19.2726 15.5002 15.3976 16.7919 15.3976 16.7919" stroke="#34911E" stroke-width="2" stroke-linecap="round" stroke-linejoin="round"/>
<path d="M15.5 21.958H15.5121" stroke="#34911E" stroke-width="2" stroke-linecap="round" stroke-linejoin="round"/>
</svg>
